<?xml version="1.0" standalone="no"?>
<!DOCTYPE svg PUBLIC "-//W3C//DTD SVG 20010904//EN"
 "http://www.w3.org/TR/2001/REC-SVG-20010904/DTD/svg10.dtd">
<svg version="1.0" xmlns="http://www.w3.org/2000/svg"
 width="500.000000pt" height="500.000000pt" viewBox="0 0 500.000000 500.000000"
 preserveAspectRatio="xMidYMid meet">

<g transform="translate(0.000000,500.000000) scale(0.100000,-0.100000)"
fill="#000000" stroke="none">
<path d="M2963 3896 c-155 -50 -280 -204 -333 -410 -24 -94 -27 -255 -6 -333
51 -192 187 -314 333 -300 115 12 264 132 331 269 70 143 95 351 57 491 -54
206 -225 333 -382 283z"/>
<path d="M1941 3888 c-172 -30 -285 -228 -268 -467 18 -239 141 -452 312 -536
126 -63 262 -31 347 82 22 29 51 85 66 125 22 62 26 89 25 183 0 135 -19 217
-78 341 -87 181 -259 298 -404 272z"/>
<path d="M3623 3055 c-202 -56 -347 -239 -389 -490 -21 -120 -10 -200 38 -295
39 -76 108 -134 178 -149 158 -33 352 93 449 291 58 119 74 190 69 317 -3 91
-7 114 -31 163 -68 138 -185 199 -314 163z"/>
<path d="M1273 2992 c-73 -26 -117 -64 -147 -124 -69 -142 -55 -338 37 -513
49 -92 157 -197 250 -241 107 -50 177 -56 251 -20 64 31 99 69 135 146 23 50
26 67 26 175 0 91 -5 133 -19 175 -46 135 -118 242 -212 318 -113 90 -223 119
-321 84z"/>
<path d="M2473 2450 c-184 -28 -354 -117 -476 -250 -187 -201 -367 -586 -367
-783 0 -82 26 -144 85 -204 109 -108 245 -109 526 -4 159 59 269 84 374 84
110 1 172 -15 370 -93 174 -69 238 -85 308 -75 212 28 292 189 213 423 -78
229 -333 593 -520 741 -166 132 -343 188 -513 161z"/>
</g>
</svg>
